<svg width="183" height="191" viewBox="0 0 183 191" fill="none" xmlns="http://www.w3.org/2000/svg">
<path fill-rule="evenodd" clip-rule="evenodd" d="M30.6621 0.421788C26.8141 1.6797 24.4266 3.77809 22.7885 7.34181C21.9637 9.13579 21.835 10.0132 21.6783 14.896L21.5008 20.4208H17.2947C9.41853 20.4208 4.52229 23.0971 1.74719 28.9192C0.149431 32.2714 -0.126251 35.5401 0.0438587 49.116C0.188228 60.6491 0.210611 60.9397 1.10443 62.9482L2.01728 64.9999L2.2038 122.822L2.39032 180.644L3.24796 182.766C4.38762 185.587 7.03065 188.35 9.85126 189.67L12.0895 190.717H91.362H170.634L172.873 189.67C175.693 188.35 178.336 185.587 179.476 182.766L180.334 180.644L180.52 122.822L180.707 64.9999L181.62 62.9482C182.513 60.9397 182.536 60.6491 182.68 49.116C182.85 35.5401 182.575 32.2714 180.977 28.9192C178.202 23.0971 173.305 20.4208 165.429 20.4208H161.223L161.044 14.8389C160.873 9.49653 160.814 9.15407 159.68 6.8505C156.074 -0.474271 146.733 -2.23431 140.502 3.23717C139.746 3.90082 138.594 5.52656 137.942 6.8505C136.808 9.15407 136.75 9.49653 136.579 14.8389L136.399 20.4208H120.087H103.774L103.595 14.8389C103.423 9.49653 103.365 9.15407 102.231 6.8505C98.6249 -0.474271 89.2838 -2.23431 83.0524 3.23717C82.2966 3.90082 81.145 5.52656 80.4933 6.8505C79.3592 9.15407 79.3006 9.49653 79.1294 14.8389L78.95 20.4208H62.6374H46.3248L46.1472 14.896C45.9906 10.0091 45.8619 9.13542 45.0329 7.32502C43.7124 4.43988 42.0549 2.71304 39.31 1.36187C36.5114 -0.0161689 33.1271 -0.383993 30.6621 0.421788ZM163.36 123.382V173.743H91.362H19.364V123.382V73.0204H91.362H163.36V123.382ZM85.8305 82.0146C82.7495 82.3727 78.7687 83.4784 75.7414 84.8169C73.051 86.0069 68.0835 89.3588 66.031 91.3695C60.9281 96.3676 61.66 103.944 67.5713 107.32C71.5144 109.572 75.2322 109.109 79.5704 105.825C83.3754 102.944 85.7424 101.973 89.3606 101.81C91.7936 101.699 92.7288 101.82 94.0789 102.417C96.2116 103.36 96.5645 104.539 95.5293 107.264C94.1886 110.791 91.4366 114.215 77.7741 129.351C69.2873 138.752 63.7823 145.156 63.1999 146.304C61.9603 148.749 61.8835 153.279 63.0392 155.837C64.112 158.212 66.1847 160.191 68.5118 161.062C70.4102 161.772 71.4353 161.806 91.362 161.806C111.438 161.806 112.301 161.777 114.256 161.046C118.309 159.529 120.705 155.629 120.379 151.079C120.11 147.304 118.509 144.869 115.1 143.045C113.647 142.268 112.975 142.21 103.43 142.034L93.3022 141.848L99.8279 134.573C107.28 126.266 109.271 123.724 111.642 119.493C117.886 108.347 117.266 97.3737 109.957 89.6374C105.896 85.3403 101.46 83.1554 94.7411 82.1426C90.8438 81.555 89.906 81.5416 85.8305 82.0146Z" fill="black"/>
</svg>
