<svg width="152" height="152" viewBox="0 0 152 152" fill="none" xmlns="http://www.w3.org/2000/svg">
<path fill-rule="evenodd" clip-rule="evenodd" d="M35.5224 0.702331C34.5782 1.64629 34.3205 3.6764 34.3493 9.94424C34.4393 29.5679 42.1832 41.8979 56.7393 45.5936C61.4164 46.7813 74.607 45.883 76.9461 44.218C79.7027 42.2556 82.5294 37.9695 83.7904 33.8401C84.7996 30.5348 84.7411 26.2282 83.6431 23.0053C82.5374 19.7608 80.8251 16.9747 78.3063 14.323C73.8894 9.67352 69.7236 7.6725 63.2989 7.11474C58.6346 6.70984 52.9664 5.29717 44.2355 2.36346C40.3664 1.06359 36.9815 0 36.7131 0C36.4447 0 35.9087 0.316138 35.5224 0.702331ZM53.6953 10.2488C55.9412 10.822 59.0479 11.4299 60.5993 11.5997C65.2407 12.1079 67.6841 12.6927 70.0674 13.8652C74.7308 16.1592 78.3933 21.0812 79.4988 26.5404C79.9337 28.6884 79.934 29.0918 79.5026 31.2807C78.9848 33.9084 77.7321 36.6417 76.2528 38.372L75.2968 39.4899L65.8117 28.9271C60.5948 23.1173 55.8801 17.9724 55.3349 17.4936C54.1657 16.4671 53.2517 16.3935 52.1772 17.2386C51.608 17.6859 51.3948 18.1267 51.3948 18.8558C51.3948 20.0669 51.4542 20.1393 62.3434 32.2075L70.3789 41.1128L68.5324 41.3514C65.7027 41.7171 59.8935 41.3755 57.1847 40.6838C48.1177 38.3688 42.3768 31.593 40.1259 20.5499C39.394 16.9601 38.8358 9.95345 39.0896 7.54397L39.2799 5.73738L44.446 7.47214C47.2875 8.42619 51.4497 9.6756 53.6953 10.2488ZM108.723 31.1748C104.032 31.8287 96.7839 34.2797 92.5127 36.6566C85.8745 40.3508 81.9697 46.9466 81.9819 54.444C81.992 60.7086 84.4822 65.6724 88.7317 67.8975C90.9657 69.0674 91.6849 69.2164 94.9697 69.1903C103.575 69.1211 110.935 65.2684 113.894 59.2831C115.043 56.9583 115.09 56.6742 115.975 46.7528C116.223 43.9773 116.772 39.8004 117.195 37.4711C117.921 33.4833 117.937 33.1918 117.474 32.4856C117.204 32.0733 116.647 31.6082 116.237 31.4523C115.124 31.029 110.89 30.8726 108.723 31.1748ZM112.56 35.8776C112.56 36.0183 112.433 36.8038 112.278 37.6228C111.72 40.5606 111.077 46.239 110.8 50.6655C110.56 54.5126 110.408 55.4046 109.766 56.762C108.283 59.8964 104.669 62.5232 100.238 63.6865C97.9258 64.2935 92.6665 64.6296 92.6665 64.1701C92.6665 63.9881 95.0012 60.5765 97.8542 56.5893C100.708 52.6021 103.188 49.021 103.365 48.6315C104.096 47.0265 102.356 45.1071 100.62 45.6046C99.8365 45.8293 98.7741 47.1494 94.1009 53.7049L88.518 61.5365L87.7275 59.8106C86.7664 57.7116 86.4327 53.5564 87.0215 51.0199C87.9995 46.8053 90.7989 43.0865 94.7259 40.7856C97.2738 39.2928 101.954 37.4043 104.889 36.6848C108.493 35.8014 112.56 35.3733 112.56 35.8776ZM0.74289 52.9868L0 53.7295L0.0881848 67.3095L0.17637 80.8897L0.976565 82.4057C2.18235 84.6908 3.09834 85.6217 5.22131 86.7192L7.15188 87.7171L7.15277 116.773C7.15366 138.716 7.24244 146.129 7.51501 147.051C7.99691 148.682 10.4566 151.141 12.0876 151.623C14.9222 152.46 17.4888 151.756 19.4164 149.612C20.1225 148.827 20.8588 147.655 21.053 147.007C21.3155 146.132 21.406 138.357 21.406 116.752V87.6747L22.8164 87.0356C24.9281 86.0792 26.2336 84.8541 27.3655 82.7673L28.3836 80.8897L28.4718 67.3095L28.56 53.7295L27.8171 52.9868C26.8391 52.009 25.4804 52.0031 24.5103 52.9731L23.7814 53.7016V61.2847V68.8676H20.2184H16.6553V61.2847V53.7016L15.9264 52.9731C15.4671 52.5136 14.8584 52.2444 14.28 52.2444C13.7016 52.2444 13.0929 52.5136 12.6336 52.9731L11.9047 53.7016V61.2847V68.8676H8.34163H4.77861V61.2847V53.7016L4.04967 52.9731C3.07964 52.0031 1.72094 52.009 0.74289 52.9868ZM134.532 52.801C132.295 53.5196 130.804 54.5224 128.875 56.6047C125.68 60.0552 123.938 64.5815 123.638 70.2093C123.314 76.305 125.144 81.7788 128.861 85.8331L130.672 87.8083V116.819C130.672 138.729 130.761 146.128 131.033 147.051C131.515 148.682 133.975 151.141 135.606 151.623C138.44 152.46 141.007 151.756 142.935 149.612C143.641 148.827 144.377 147.655 144.571 147.007C144.833 146.132 144.924 138.373 144.924 116.819V87.8083L146.735 85.8331C149.023 83.3375 150.929 79.5065 151.629 75.9978C152.268 72.7963 152.063 67.923 151.154 64.7165C148.622 55.7789 141.393 50.5969 134.532 52.801ZM63.0011 58.3062C57.9071 59.6278 57.0366 60.1018 57.036 61.5537C57.036 61.9028 57.5963 64.9923 58.281 68.4188C59.6233 75.1349 60.0049 75.9918 61.6536 75.9918C62.504 75.9918 74.6275 68.9249 75.5194 67.9094C75.8054 67.5838 76.0391 66.9696 76.0391 66.5445C76.0391 65.6774 70.9178 57.728 70.0654 57.2717C69.2162 56.8173 68.1223 56.9776 63.0011 58.3062ZM141.208 58.0144C146.15 60.9101 148.605 69.8947 146.404 77.0308C145.499 79.963 144.546 81.49 142.21 83.7495L140.173 85.7191V115.748V145.777L139.445 146.505C138.48 147.47 137.116 147.47 136.152 146.505L135.423 145.777V115.748V85.7191L133.386 83.7495C129.784 80.2652 128.447 76.8821 128.446 71.2423C128.445 68.2991 128.56 67.4808 129.277 65.3055C131.56 58.3867 136.593 55.3108 141.208 58.0144ZM69.0303 63.84C69.6764 64.8421 70.0695 65.7371 69.921 65.8662C69.3614 66.3542 63.5361 69.8234 63.4518 69.7192C63.4031 69.659 63.0949 68.2404 62.7671 66.5668L62.1709 63.5238L63.241 63.2436C63.8292 63.0896 65.0456 62.7678 65.9438 62.5288C66.842 62.2899 67.6437 62.0833 67.7253 62.0699C67.807 62.0562 68.3943 62.853 69.0303 63.84ZM23.7333 76.8616C23.6493 79.5768 23.5332 80.24 23.0207 80.9248C22.037 82.2407 21.0566 82.8163 19.338 83.0879C16.3884 83.5542 16.6553 80.3581 16.6553 115.221V145.777L15.9264 146.505C14.9623 147.47 13.5977 147.47 12.6336 146.505L11.9047 145.777V115.221C11.9047 80.3581 12.1716 83.5542 9.22199 83.0879C7.50343 82.8163 6.523 82.2407 5.53931 80.9248C5.02683 80.24 4.91074 79.5768 4.82671 76.8616L4.72605 73.6171H14.28H23.8339L23.7333 76.8616ZM81.5187 76.7206L80.7898 77.449V85.4908V93.5326L81.5187 94.261C81.9195 94.6618 82.5294 94.9898 82.8738 94.9898C83.2185 94.9898 86.7064 94.4555 90.6246 93.8024C94.5427 93.1494 97.8804 92.6151 98.0416 92.6151C98.6007 92.6151 99.7925 91.1546 99.7925 90.4695C99.7925 89.3789 94.7829 77.0905 94.1021 76.5113C93.5673 76.0563 92.7933 75.9918 87.8695 75.9918C82.2963 75.9918 82.2411 75.9981 81.5187 76.7206ZM71.8822 80.9521C62.7763 81.1136 52.2342 82.0842 45.0111 83.4266C32.3211 85.7844 24.7678 89.6784 23.8987 94.31C23.4426 96.7397 24.6442 105.47 26.3082 111.819C30.7008 128.577 40.0208 141.026 52.6989 147.069C66.4893 153.643 85.6153 153.644 99.3792 147.072C106.119 143.853 112.798 137.982 117.096 131.498C123.305 122.131 127.324 109.747 128.178 97.3559C128.345 94.9319 128.29 94.1672 127.871 93.0704C126.919 90.579 123.453 88.28 118.053 86.5589C112.829 84.8939 102.628 82.9561 101.448 83.4046C100.582 83.7335 99.7925 84.8122 99.7925 85.6654C99.7925 86.5755 100.85 87.7931 101.8 87.9781C102.247 88.065 104.617 88.491 107.067 88.9247C112.6 89.9043 117.843 91.3867 120.488 92.7198C123.951 94.465 124.283 95.4374 121.961 97.0348C117.585 100.044 106.857 102.603 92.9634 103.951C87.5111 104.48 64.5584 104.48 59.1147 103.951C47.2216 102.794 37.2585 100.655 32.1376 98.1592C30.0657 97.1493 28.5321 95.8937 28.5321 95.2077C28.5321 93.3227 34.243 90.6574 42.0021 88.9211C50.1763 87.092 58.5832 86.1412 69.3234 85.8304L77.0079 85.6084L77.7113 84.7909C78.594 83.7647 78.6059 82.7646 77.7463 81.8263C76.9248 80.9292 76.5242 80.8696 71.8822 80.9521ZM92.5845 84.5261C93.4118 86.6075 94.0629 88.3396 94.0314 88.3746C93.945 88.4705 86.5105 89.6466 85.9909 89.6466C85.6084 89.6466 85.5404 88.9755 85.5404 85.194V80.7413H88.3101H91.0801L92.5845 84.5261ZM66.5377 88.2535C65.0804 88.7128 62.5949 91.2858 62.148 92.7979C61.3256 95.5811 61.9054 97.8 64.0038 99.8978C65.5415 101.435 67.0454 102.114 68.913 102.114C72.5921 102.114 76.0391 98.668 76.0391 94.9898C76.0391 93.1227 75.36 91.6191 73.8223 90.0818C71.7328 87.9932 69.3011 87.3829 66.5377 88.2535ZM70.5594 93.3438C72.0324 94.8161 70.9888 97.3645 68.913 97.3645C67.6924 97.3645 66.5377 96.2101 66.5377 94.9898C66.5377 93.7695 67.6924 92.6151 68.913 92.6151C69.4914 92.6151 70.1001 92.8843 70.5594 93.3438ZM31.2982 102.783C36.9004 105.378 46.316 107.347 58.868 108.551C66.1006 109.244 85.9775 109.244 93.2101 108.551C105.822 107.342 115.125 105.387 121.096 102.692C122.117 102.231 122.952 101.946 122.953 102.059C122.953 102.171 122.74 103.427 122.479 104.849L122.004 107.436L119.583 108.374C111.212 111.618 97.5137 113.542 80.3444 113.885C60.4746 114.282 42.3771 112.197 32.4951 108.373L30.0746 107.436L29.5995 104.849C29.0579 101.899 29.0434 101.728 29.3486 101.876C29.4709 101.935 30.3483 102.343 31.2982 102.783ZM41.5965 115.775C46.4493 116.756 52.9691 117.634 59.5601 118.195C65.4043 118.692 86.5972 118.696 92.518 118.201C102.431 117.373 111.544 115.864 117.719 114.028C121.048 113.039 120.87 112.645 119.176 117.253C116.572 124.335 111.956 131.59 107.221 136.043C99.3935 143.405 88.724 147.234 76.0391 147.234C55.0095 147.234 40.1888 136.932 32.9084 117.253C31.2047 112.648 31.0253 113.037 34.3885 114.04C35.985 114.516 39.2286 115.297 41.5965 115.775ZM43.7346 121.714C42.68 122.696 42.6547 123.53 43.6114 125.806C46.0301 131.561 50.7674 136.41 56.6096 139.108C59.1919 140.301 60.0838 140.355 61.058 139.381C62.5201 137.92 61.8885 136.229 59.4829 135.165C54.1229 132.795 49.6186 128.378 47.8229 123.729C47.4874 122.861 46.9366 121.917 46.5987 121.631C45.7792 120.938 44.5286 120.974 43.7346 121.714ZM64.1623 140.11V142.485H66.5377H68.913V140.11V137.735H66.5377H64.1623V140.11Z" fill="black"/>
</svg>
