<svg width="161" height="161" viewBox="0 0 161 161" fill="none" xmlns="http://www.w3.org/2000/svg">
<path fill-rule="evenodd" clip-rule="evenodd" d="M18.5044 0.466252C16.8869 1.36281 16.9303 0.653129 16.9184 26.2019L16.9075 50.03H9.70438C1.87563 50.03 1.12187 50.1688 0.405938 51.74C-0.135312 52.9275 -0.135312 157.133 0.405938 158.32C1.23938 160.15 -4.33594 160.03 80.0325 160.03C164.401 160.03 158.826 160.15 159.659 158.32C159.944 157.695 160.033 145.038 160.033 105C160.033 47.905 160.137 51.23 158.323 50.4034C157.763 50.1484 155.226 50.03 150.33 50.03H143.158V26.2644C143.158 0.463438 143.207 1.20469 141.448 0.403439C140.18 -0.174061 19.5481 -0.112498 18.5044 0.466252ZM136.908 28.155V50.03H115.173C91.5822 50.03 92.1406 49.99 91.3434 51.74C90.8713 52.7763 90.8713 53.5338 91.3434 54.57C92.1544 56.3497 90.8369 56.28 123.611 56.28H153.783V68.78V81.28H80.0325H6.2825V68.78V56.28H36.4241C59.1275 56.28 66.7678 56.1878 67.385 55.9066C68.8556 55.2366 69.4584 53.3572 68.7216 51.74C67.9244 49.99 68.4828 50.03 44.8919 50.03H23.1575V28.155V6.28H80.0325H136.908V28.155ZM44.1125 12.8706C43.3488 13.0206 41.6884 13.635 40.4225 14.2359C34.4622 17.0666 30.8756 23.8175 31.8653 30.3425C33.6228 41.9294 47.4366 47.7806 56.0941 40.6056C58.9378 38.2488 61.0194 33.4916 61.0888 29.1919C61.125 26.9316 61.0941 26.8294 60.1056 25.9441L59.085 25.03H54.5434C49.5694 25.03 48.5675 25.2881 47.9059 26.74C47.4147 27.8175 47.4347 28.6216 47.9778 29.6722C48.5941 30.8638 49.6963 31.28 52.2347 31.28C54.8134 31.28 54.9084 31.4897 53.4688 34C52.0922 36.4003 50.2894 37.3738 47.22 37.3738C44.4859 37.3738 42.52 36.58 40.6684 34.7284C38.8409 32.9009 38.0416 30.9006 38.0416 28.155C38.0416 25.3678 38.8534 23.3794 40.7391 21.5497C42.7259 19.6213 44.4728 18.9353 47.3763 18.9428C49.5956 18.9484 50.1031 19.0669 51.8969 19.9969C53.62 20.8903 54.0759 21.0044 54.9919 20.7719C57.1981 20.2113 58.0725 17.39 56.5472 15.7544C54.2866 13.3303 48.5513 12.0003 44.1125 12.8706ZM69.0247 13.0172C67.9716 13.5888 67.5325 14.3741 67.5325 15.6866C67.5325 16.4544 68.4519 18.0913 71.3606 22.5041L75.1888 28.3113L75.345 35.1344L75.5013 41.9578L76.5219 42.8688C77.0831 43.37 77.8988 43.78 78.3341 43.78C79.3703 43.78 80.8675 42.9928 81.2731 42.2347C81.4634 41.8797 81.5963 39.0363 81.5978 35.285L81.6003 28.9363L85.5666 22.8728C89.8547 16.3169 90.1422 15.5381 88.8912 13.8628C88.0481 12.7334 86.6047 12.3206 85.3359 12.8463C84.6084 13.1475 83.6684 14.3197 81.5431 17.5759C79.9888 19.9569 78.6266 21.8997 78.5156 21.8931C78.4047 21.8866 77.1888 20.1178 75.8138 17.9628C74.4388 15.8078 72.9163 13.7038 72.4303 13.2872C71.4313 12.4306 70.2744 12.3391 69.0247 13.0172ZM102.146 13.0191C101.675 13.2744 101.082 13.8872 100.826 14.3809C100.331 15.3384 95.97 38.9022 95.97 40.62C95.97 42.8503 98.855 44.2534 100.809 42.9731C101.799 42.3244 101.988 41.6584 103.33 34.0925C103.955 30.5691 104.501 27.6506 104.543 27.6069C104.584 27.5634 105.509 30.5869 106.597 34.3256C107.686 38.0647 108.783 41.4916 109.035 41.9406C109.744 43.2078 111.13 43.8828 112.613 43.6838C114.866 43.3816 115.219 42.7356 117.544 34.6597L119.641 27.3738L119.98 29.0925C120.167 30.0378 120.813 33.3425 121.415 36.4363C122.379 41.3888 122.607 42.1453 123.32 42.7644C125.009 44.2303 127.934 43.3072 128.314 41.1884C128.499 40.1563 124.106 16.3325 123.411 14.6025C122.971 13.5075 121.453 12.5322 120.189 12.5322C119.024 12.5322 117.311 13.5463 116.894 14.4825C116.722 14.8694 115.605 18.6153 114.411 22.8063C113.217 26.9972 112.193 30.4741 112.134 30.5325C112.075 30.5913 111.138 27.5841 110.051 23.8503C107.391 14.7138 107.058 13.8628 105.861 13.1325C104.693 12.4206 103.326 12.3788 102.146 13.0191ZM78.5044 50.4663C75.7953 51.9678 76.9288 56.28 80.0325 56.28C81.6159 56.28 83.1575 54.7534 83.1575 53.1853C83.1575 50.8391 80.5647 49.3241 78.5044 50.4663ZM46.9075 113.155V138.78H26.595H6.2825V113.155V87.53H26.595H46.9075V113.155ZM76.9075 120.655V153.78H65.0325H53.1575V120.655V87.53H65.0325H76.9075V120.655ZM106.908 120.655V153.78H95.0325H83.1575V120.655V87.53H95.0325H106.908V120.655ZM153.783 113.155V138.78H133.47H113.158V113.155V87.53H133.47H153.783V113.155ZM26.7188 97.3978C26.1853 97.6609 22.705 100.941 18.9844 104.686C12.3116 111.403 12.22 111.513 12.22 112.818C12.22 114.69 13.5041 115.968 15.3847 115.968C16.7134 115.968 16.7712 115.919 23.8075 108.858C29.1169 103.531 30.9344 101.514 31.0591 100.811C31.3141 99.3763 30.5469 97.895 29.2725 97.3625C27.9362 96.8041 27.9216 96.8044 26.7188 97.3978ZM133.594 97.3903C133.06 97.6575 129.58 100.941 125.859 104.686C119.187 111.403 119.095 111.513 119.095 112.818C119.095 113.863 119.287 114.332 120.008 115.054C120.73 115.776 121.199 115.968 122.245 115.968C123.549 115.968 123.659 115.876 130.382 109.198C134.131 105.474 137.422 101.953 137.698 101.373C138.917 98.8041 136.144 96.1128 133.594 97.3903ZM27.1562 119.966L20.0325 127.09V128.517C20.0325 130.516 21.1091 131.593 23.1078 131.593H24.5353L31.6587 124.469L38.7825 117.345V115.918C38.7825 113.919 37.7059 112.843 35.7072 112.843H34.2797L27.1562 119.966ZM134.031 119.966L126.908 127.09V128.517C126.908 129.643 127.082 130.119 127.731 130.769C128.381 131.418 128.857 131.593 129.983 131.593H131.41L138.534 124.469L145.658 117.345V115.918C145.658 113.919 144.581 112.843 142.582 112.843H141.155L134.031 119.966ZM46.9075 149.405V153.78H26.595H6.2825V149.405V145.03H26.595H46.9075V149.405ZM153.783 149.405V153.78H133.47H113.158V149.405V145.03H133.47H153.783V149.405Z" fill="black"/>
</svg>
