<svg width="189" height="190" viewBox="0 0 189 190" fill="none" xmlns="http://www.w3.org/2000/svg">
<path fill-rule="evenodd" clip-rule="evenodd" d="M91.5 0.830049C90.4 1.29905 69.363 21.8691 44.75 46.5431C2.04 89.3591 0 91.5711 0 95.0711C0 99.0351 2.678 101.852 6.445 101.852C7.747 101.852 23.381 86.932 51.223 59.118L94 16.383L136.777 59.118C160.304 82.622 180.293 101.852 181.195 101.852C185.935 101.852 189.721 96.7921 188.074 92.6581C187.008 89.9821 99.578 2.60605 96.316 0.956049C93.829 -0.300951 94.137 -0.292951 91.5 0.830049ZM112.41 80.9861C106.15 82.3951 97.987 87.8051 93.753 93.3521C86.551 102.789 75.295 125.538 68.366 144.661C64.69 154.808 64.889 157.284 69.472 158.434C72.756 159.259 73.424 158.67 75.479 153.135C76.456 150.504 78.626 145.002 80.301 140.908L83.348 133.464L89.107 145.658C94.127 156.287 95.176 157.852 97.278 157.852C99.674 157.852 103 155.131 103 153.17C103 152.607 100.496 146.837 97.435 140.348C93.518 132.044 92.218 128.335 93.046 127.824C93.693 127.424 97.659 126.526 101.861 125.828C110.564 124.382 112 123.582 112 120.18C112 116.72 109.436 112.204 103.769 105.684C99.661 100.957 99.014 99.6951 99.873 98.0891C102.253 93.6431 112.82 87.8521 118.554 87.8521C120.826 87.8521 124 85.5201 124 83.8521C124 82.1771 120.824 79.8541 118.679 79.9591C117.48 80.0181 114.66 80.4801 112.41 80.9861ZM106.635 94.925C103.3 97.547 103.231 101.174 106.455 104.397C109.217 107.16 110.194 107.345 113.316 105.702C116.276 104.144 116.967 102.912 116.985 99.159C116.995 96.9811 116.293 95.47 114.777 94.409C111.796 92.3201 109.783 92.448 106.635 94.925ZM21.594 110.748C20.046 112.459 19.908 115.231 20.189 138.998L20.5 165.352L23.187 170.444C26.581 176.876 35.182 184.765 41.578 187.312C46.136 189.127 49.616 189.298 88.64 189.629C112.128 189.828 133.824 189.565 137.658 189.033C150.389 187.269 159.692 180.713 164.875 169.852C167.469 164.416 167.503 164.05 167.798 138.484C168.131 109.614 167.969 108.852 161.5 108.852C155.277 108.852 155.001 109.96 154.994 134.931C154.991 147.49 154.527 159.014 153.94 161.129C152.575 166.045 147.55 171.697 142.509 173.987C138.824 175.661 134.908 175.808 94 175.808C53.092 175.808 49.176 175.661 45.491 173.987C40.45 171.697 35.425 166.045 34.06 161.129C33.471 159.01 33.009 147.437 33.006 134.757C33 114.141 32.84 112.017 31.171 110.507C28.709 108.279 23.715 108.405 21.594 110.748ZM101.936 115.733C102.801 117.35 102.503 117.701 99.812 118.24C95.914 119.019 95.666 118.774 97.58 116.042C99.46 113.358 100.621 113.275 101.936 115.733Z" fill="black"/>
</svg>
