<svg width="118" height="145" viewBox="0 0 118 145" fill="none" xmlns="http://www.w3.org/2000/svg">
<path fill-rule="evenodd" clip-rule="evenodd" d="M86.4139 0.422993C84.1843 1.02327 82.6079 1.89906 80.9285 3.46982C74.2547 9.71221 76.0716 20.4131 84.4812 24.3968C86.3423 25.2783 86.7137 25.3471 89.605 25.3471C92.4962 25.3471 92.8676 25.2783 94.7287 24.3968C103.138 20.4131 104.955 9.71221 98.2814 3.46982C95.0488 0.446149 90.5847 -0.700085 86.4139 0.422993ZM74.1675 29.6922C71.5042 30.1286 68.4327 31.7691 66.3166 33.885C64.3789 35.823 63.4972 37.2554 62.5528 40.0003C62.0282 41.525 61.9959 42.8447 62.0003 62.5773L62.0054 83.5346L62.6683 84.6999C63.4538 86.0797 65.4545 87.2485 67.0148 87.239C68.6966 87.2287 70.4592 86.2653 71.4018 84.8415L72.2378 83.5786L72.3209 65.1703C72.3782 52.4055 72.5032 46.642 72.7282 46.3709C73.1664 45.8431 74.0229 45.8778 74.5917 46.4463C75.0118 46.8667 75.0581 51.5116 75.0581 93.1433V139.373L76.0229 140.98C76.7672 142.22 77.3517 142.777 78.5802 143.416C80.6934 144.517 82.4253 144.52 84.5771 143.429C86.6282 142.389 87.7326 140.84 88.1227 138.457C88.2951 137.403 88.4148 127.435 88.4157 114.049C88.4175 91.7275 88.4255 91.4185 89.0112 91.105C89.4331 90.8793 89.7769 90.8793 90.1987 91.105C90.7847 91.4185 90.7925 91.7266 90.7925 114.405C90.7925 129.636 90.8999 137.889 91.1107 138.872C91.5602 140.967 92.8771 142.653 94.7439 143.522C97.9673 145.023 101.375 143.997 103.187 140.98L104.152 139.373V93.1433C104.152 51.5116 104.198 46.8667 104.618 46.4463C105.187 45.8778 106.044 45.8431 106.482 46.3709C106.707 46.642 106.832 52.4055 106.889 65.1703L106.972 83.5786L107.808 84.8415C108.751 86.2653 110.513 87.2287 112.195 87.239C113.755 87.2485 115.756 86.0797 116.542 84.6999L117.205 83.5346L117.21 62.7332C117.214 44.4585 117.156 41.7355 116.736 40.3191C115.995 37.8233 115.005 36.0991 113.18 34.1278C111.151 31.9363 107.725 30.1212 104.746 29.659C102.363 29.2893 76.4528 29.3172 74.1675 29.6922Z" fill="#828282"/>
<path fill-rule="evenodd" clip-rule="evenodd" d="M42.8329 60.2397C40.4013 60.8291 37.683 62.961 36.651 65.0874C34.5309 69.4565 35.8864 74.4967 39.9026 77.1786C42.7659 79.0905 46.9558 79.1652 49.8088 77.355C53.989 74.7029 55.4566 69.5345 53.2957 65.0753C52.6515 63.7459 50.63 61.7393 49.2208 61.0302C47.2315 60.0297 44.8932 59.7402 42.8329 60.2397ZM6.3087 65.3578C6.16368 65.4144 5.86696 65.6227 5.64952 65.8206C5.26017 66.1748 5.25401 66.2467 5.25401 70.4324V74.6844L3.60202 74.7709C1.62114 74.8744 0.89956 75.2302 0.344619 76.3765C-0.114873 77.3257 -0.114873 77.9399 0.344619 78.8891C0.905889 80.0484 1.6556 80.4177 3.62153 80.5036L5.25401 80.5752V84.8301V89.0851L5.7077 89.5114C6.1461 89.9232 6.24929 89.9375 8.79899 89.9375H11.4368L11.8611 89.4442C12.2839 88.9526 12.2853 88.938 12.2853 84.7421V80.5332H15.2363H18.1875L19.023 88.5752C19.9562 97.5585 19.9859 97.6862 21.399 98.7641C22.7857 99.8218 24.6112 99.9533 26.0581 99.0997C26.5016 98.8381 27.957 97.3206 29.773 95.2264C31.4152 93.3327 32.8191 91.7832 32.8931 91.7832C32.967 91.7832 33.0274 95.3004 33.0274 99.5993C33.0274 107.182 33.0171 107.421 32.6829 107.6C32.4936 107.701 29.1251 109.09 25.1976 110.686C17.3021 113.895 16.9558 114.052 16.0765 114.824C14.8721 115.881 14.6687 116.603 13.6038 123.6C13.0666 127.128 12.3452 131.835 12.0003 134.059C11.2984 138.586 11.2965 139.575 11.9868 140.925C12.9763 142.86 14.6921 143.904 16.8556 143.887C19.0272 143.871 20.6711 142.85 21.5834 140.952C22.0538 139.973 22.2438 138.967 23.4119 131.272C24.325 125.255 24.7886 122.639 24.9601 122.533C25.095 122.449 28.2341 121.152 31.9358 119.65L38.6667 116.92H44.9874H51.3082L58.2078 119.719C64.0191 122.076 65.1288 122.582 65.2427 122.927C65.3171 123.152 65.9358 127.01 66.6178 131.501C67.2999 135.991 67.9629 139.97 68.0914 140.343C68.8446 142.529 70.825 143.908 73.1935 143.896C75.277 143.885 77.0508 142.776 78.0292 140.873C78.7413 139.487 78.6926 138.761 77.2528 129.312C75.1764 115.686 75.3436 116.451 74.1416 115.078C73.3865 114.215 72.2583 113.693 63.6596 110.226L56.9383 107.516L56.936 99.5615C56.9348 95.1868 56.9608 91.6074 56.9938 91.6074C57.0269 91.6074 58.4597 93.2195 60.1779 95.1898C62.1375 97.437 63.573 98.9276 64.0289 99.1888C65.0123 99.7524 66.8754 99.7592 67.9469 99.2032C68.8221 98.7494 69.7077 97.7262 69.9571 96.8808C70.057 96.5424 70.5121 92.7456 70.9682 88.4433L71.7978 80.6211L74.7368 80.5729L77.6759 80.5247V84.7379C77.6759 88.9381 77.6771 88.9526 78.1 89.4442L78.5244 89.9375H81.1622C83.7119 89.9375 83.815 89.9232 84.2534 89.5114L84.7071 89.0851V84.8301V80.5752L86.3396 80.5036C88.3055 80.4177 89.0553 80.0484 89.6165 78.8891C90.076 77.9399 90.076 77.3257 89.6165 76.3765C89.0616 75.2302 88.34 74.8744 86.3591 74.7709L84.7071 74.6844V70.4324V66.1804L84.2534 65.7542C83.815 65.3423 83.7119 65.3281 81.1622 65.3281H78.5244L78.1 65.8213C77.6773 66.313 77.6759 66.3276 77.6759 70.5235V74.7324H75.0392H72.4024V74.2694C72.4024 72.8939 71.3258 71.2537 70.0392 70.6694C69.0637 70.2262 67.3268 70.2297 66.4508 70.6768C65.1457 71.3426 64.4369 72.4003 64.0574 74.249L63.9583 74.7324H60.3955H56.8328L56.1538 75.9189C54.8417 78.2114 52.0002 80.6156 49.5424 81.5124C46.6639 82.5629 43.3031 82.5657 40.4403 81.52C37.9428 80.6079 34.9206 78.0501 33.7176 75.831L33.122 74.7324H29.5624H26.0029L25.9037 74.249C25.5242 72.4003 24.8155 71.3426 23.5103 70.6768C22.7184 70.2726 20.9917 70.2204 20.1458 70.5748C18.7902 71.1429 17.8269 72.4263 17.6193 73.9408L17.5109 74.7324H14.8981H12.2853V70.5235C12.2853 66.3288 12.2839 66.3128 11.8615 65.8213C11.4383 65.329 11.4334 65.3281 9.00501 65.2913C7.66714 65.2713 6.45372 65.3012 6.3087 65.3578ZM31.2413 80.8408C30.0395 82.2701 27.1746 85.4615 27.1317 85.4188C27.1022 85.3891 26.9922 84.5348 26.8874 83.5204C26.7825 82.5058 26.6541 81.4186 26.6021 81.1045L26.5075 80.5332H29.0038C31.3624 80.5332 31.4857 80.55 31.2413 80.8408ZM63.3698 81.1923C63.3154 81.555 63.1825 82.6425 63.0744 83.6093C62.9663 84.5761 62.8559 85.3896 62.8294 85.4172C62.8027 85.4447 61.9658 84.535 60.9695 83.3958C59.9731 82.2563 58.9997 81.1463 58.8063 80.9287L58.4544 80.5332H60.9615H63.4685L63.3698 81.1923Z" fill="black"/>
</svg>
