<svg width="226" height="226" viewBox="0 0 226 226" fill="none" xmlns="http://www.w3.org/2000/svg">
<path fill-rule="evenodd" clip-rule="evenodd" d="M14.9319 0.651317C9.56308 2.15952 4.28349 6.36597 2.21411 10.7838C-0.118069 15.7641 0.00102263 10.2912 0.00102263 112.517C0.00102263 214.743 -0.118069 209.27 2.21411 214.251C3.53598 217.072 7.93535 221.472 10.7571 222.794C15.7374 225.126 10.2645 225.007 112.49 225.007C216.591 225.007 209.549 225.188 214.825 222.376C219.395 219.94 222.933 215.31 224.392 209.856C225.268 206.583 225.264 18.4281 224.388 15.1783C223.356 11.3476 221.816 8.66475 219.079 5.92827C216.343 3.1918 213.66 1.65195 209.829 0.619677C206.688 -0.22671 17.9492 -0.196388 14.9319 0.651317ZM208.298 14.0155C209.14 14.4638 210.271 15.6006 210.811 16.5424L211.792 18.2545L211.8 112.425C211.807 205.945 211.801 206.607 210.922 208.329C210.353 209.446 209.419 210.379 208.303 210.949C206.58 211.827 205.911 211.834 112.437 211.834H18.3051L16.4559 210.75C12.859 208.642 13.1741 218.073 13.1741 112.517C13.1741 27.4843 13.2413 18.2453 13.871 16.9186C14.5091 15.5738 15.8859 14.3236 17.5686 13.5611C17.9312 13.3968 60.6491 13.2487 112.498 13.2315C203.483 13.2017 206.82 13.2293 208.298 14.0155ZM103.921 27.5243C91.8401 28.7504 85.2857 29.9264 76.8948 32.3724C69.726 34.462 60.8916 38.0272 54.0432 41.5938C47.7327 44.8805 36.5372 52.1825 35.1981 53.8849C34.0059 55.4006 33.5968 57.7503 34.1892 59.6804C34.4541 60.5439 42.6368 71.837 52.5943 85.0817C66.3365 103.359 70.9173 109.154 72.2137 109.896C74.7498 111.348 76.8957 110.939 80.8912 108.243C100.332 95.1245 124.632 95.1126 144.045 108.213C145.815 109.407 147.921 110.491 148.726 110.621C150.751 110.95 152.956 110.125 154.546 108.444C155.284 107.663 163.71 96.6191 173.27 83.9013C191.777 59.281 191.792 59.2568 190.747 55.7671C190.134 53.7228 187.496 51.5022 180.25 46.9323C164.777 37.1747 148.887 31.3208 130.302 28.5329C124.807 27.7084 108.317 27.0778 103.921 27.5243ZM122.598 40.9184C139.932 42.5255 156.445 47.904 170.828 56.6262C173.063 57.9824 174.893 59.2603 174.893 59.4668C174.893 59.8039 150.04 93.045 148.774 94.402C148.353 94.8529 147.301 94.4895 143.444 92.5612C140.8 91.2402 136.858 89.5654 134.683 88.8399C130.421 87.4187 122.648 85.7105 120.441 85.7105H119.082L119.081 74.8341C119.081 65.3564 118.982 63.7612 118.312 62.4283C115.949 57.724 109.032 57.724 106.669 62.4283C105.999 63.7612 105.9 65.3564 105.9 74.8341L105.899 85.7105H104.539C102.318 85.7105 94.7695 87.3857 90.4084 88.8465C88.1725 89.5957 84.1901 91.2881 81.5587 92.6078C77.6225 94.5813 76.6772 94.9035 76.2286 94.4236C74.9168 93.0222 50.0881 59.8026 50.0881 59.4497C50.0881 58.3585 65.0181 50.5055 72.2805 47.7761C81.8514 44.1796 93.2213 41.6527 103.921 40.7439C108.055 40.3928 117.923 40.4851 122.598 40.9184Z" fill="black"/>
</svg>
