<svg xmlns="http://www.w3.org/2000/svg" xmlns:xlink="http://www.w3.org/1999/xlink" width="63.737" height="85.203" viewBox="0 0 63.737 85.203">
  <defs>
    <filter id="Контур_10" x="23.937" y="0" width="39.801" height="43.027" filterUnits="userSpaceOnUse">
      <feOffset dx="-3" dy="3" input="SourceAlpha"/>
      <feGaussianBlur stdDeviation="3.5" result="blur"/>
      <feFlood flood-opacity="0.173"/>
      <feComposite operator="in" in2="blur"/>
      <feComposite in="SourceGraphic"/>
    </filter>
  </defs>
  <g id="Сгруппировать_3" data-name="Сгруппировать 3" transform="translate(-932 -425.517)">
    <path id="Контур_11" data-name="Контур 11" d="M7.285-.025,41.04-.038C44.094,3.369,53.413,12.217,56.2,15.454V67.623a7.285,7.285,0,0,1-7.285,7.285H7.285A7.285,7.285,0,0,1,0,67.623V7.26A7.285,7.285,0,0,1,7.285-.025Z" transform="translate(932 435.812)" fill="#606060"/>
    <g transform="matrix(1, 0, 0, 1, 932, 425.52)" filter="url(#Контур_10)">
      <path id="Контур_10-2" data-name="Контур 10" d="M3.4,1.229C3.508.81,3.729,0,3.729,0s11.56,18.4,10.6,18.949L1.737,15.665A1.735,1.735,0,0,1,.224,13.082Z" transform="matrix(0.97, -0.26, 0.26, 0.97, 37.44, 11.22)" fill="#969696"/>
    </g>
    <rect id="Прямоугольник_31" data-name="Прямоугольник 31" width="25.114" height="4.265" rx="2.132" transform="translate(941.003 454.332)" fill="#fff"/>
    <rect id="Прямоугольник_32" data-name="Прямоугольник 32" width="25.114" height="4.265" rx="2.132" transform="translate(941.003 461.914)" fill="#fff"/>
    <rect id="Прямоугольник_33" data-name="Прямоугольник 33" width="38.382" height="4.265" rx="2.132" transform="translate(941.003 473.286)" fill="#fff"/>
    <rect id="Прямоугольник_34" data-name="Прямоугольник 34" width="38.382" height="4.265" rx="2.132" transform="translate(941.003 480.394)" fill="#fff"/>
    <rect id="Прямоугольник_35" data-name="Прямоугольник 35" width="38.382" height="3.791" rx="1.895" transform="translate(941.003 487.975)" fill="#fff"/>
  </g>
</svg>
